<svg width="400" height="400" viewBox="0 0 400 400" fill="none" xmlns="http://www.w3.org/2000/svg">
    <path d="M74.0207 324.6C66.6207 324.6 58.9207 322.8 50.9207 319.2C42.9207 315.8 36.1207 310 30.5207 301.8C25.1207 293.6 22.4207 282.7 22.4207 269.1C22.4207 254.7 23.6207 239.8 26.0207 224.4C28.6207 208.8 31.9207 193.5 35.9207 178.5C40.1207 163.3 44.6207 149 49.4207 135.6C54.4207 122.2 59.3207 110.3 64.1207 99.9C69.1207 89.5 73.7207 81.4 77.9207 75.6C82.3207 69.6 85.8207 66.6 88.4207 66.6C93.8207 66.6 98.6207 68.6 102.821 72.6C107.221 76.6 109.421 82.7 109.421 90.9C109.421 92.9 108.221 97.8 105.821 105.6C103.621 113.2 100.721 122.7 97.1207 134.1C93.7207 145.5 89.9207 157.9 85.7207 171.3C81.7207 184.5 77.9207 197.9 74.3207 211.5C70.9207 225.1 68.0207 237.9 65.6207 249.9C63.4207 261.9 62.3207 272.2 62.3207 280.8C62.3207 283.2 63.7207 284.4 66.5207 284.4C70.5207 284.4 76.4207 283.4 84.2207 281.4C92.2207 279.4 100.921 276.9 110.321 273.9C119.921 270.7 129.121 267.6 137.921 264.6C146.721 261.6 154.221 259.1 160.421 257.1C166.621 255.1 170.121 254.1 170.921 254.1C175.921 254.1 179.921 255.5 182.921 258.3C185.921 261.1 187.421 265.1 187.421 270.3C187.421 273.9 185.021 278.1 180.221 282.9C175.421 287.5 169.021 292.3 161.021 297.3C153.021 302.1 144.021 306.5 134.021 310.5C124.221 314.7 114.121 318.1 103.721 320.7C93.3207 323.3 83.4207 324.6 74.0207 324.6ZM283.376 324.6C275.976 324.6 268.276 322.8 260.276 319.2C252.276 315.8 245.476 310 239.876 301.8C234.476 293.6 231.776 282.7 231.776 269.1C231.776 254.7 232.976 239.8 235.376 224.4C237.976 208.8 241.276 193.5 245.276 178.5C249.476 163.3 253.976 149 258.776 135.6C263.776 122.2 268.676 110.3 273.476 99.9C278.476 89.5 283.076 81.4 287.276 75.6C291.676 69.6 295.176 66.6 297.776 66.6C303.176 66.6 307.976 68.6 312.176 72.6C316.576 76.6 318.776 82.7 318.776 90.9C318.776 92.9 317.576 97.8 315.176 105.6C312.976 113.2 310.076 122.7 306.476 134.1C303.076 145.5 299.276 157.9 295.076 171.3C291.076 184.5 287.276 197.9 283.676 211.5C280.276 225.1 277.376 237.9 274.976 249.9C272.776 261.9 271.676 272.2 271.676 280.8C271.676 283.2 273.076 284.4 275.876 284.4C279.876 284.4 285.776 283.4 293.576 281.4C301.576 279.4 310.276 276.9 319.676 273.9C329.276 270.7 338.476 267.6 347.276 264.6C356.076 261.6 363.576 259.1 369.776 257.1C375.976 255.1 379.476 254.1 380.276 254.1C385.276 254.1 389.276 255.5 392.276 258.3C395.276 261.1 396.776 265.1 396.776 270.3C396.776 273.9 394.376 278.1 389.576 282.9C384.776 287.5 378.376 292.3 370.376 297.3C362.376 302.1 353.376 306.5 343.376 310.5C333.576 314.7 323.476 318.1 313.076 320.7C302.676 323.3 292.776 324.6 283.376 324.6Z" fill="#4F46E5"/>
</svg>
